<svg xmlns="http://www.w3.org/2000/svg" viewBox="0 0 71 54.12"><defs><style>.cls-1{fill:#5865f2;}</style></defs><g id="Layer_2" data-name="Layer 2"><g id="Layer_2-2" data-name="Layer 2"><path class="cls-1" d="M60.1,4.49A58.41,58.41,0,0,0,45.65,0a.24.24,0,0,0-.23.11,40.62,40.62,0,0,0-1.8,3.7,53.85,53.85,0,0,0-16.23,0A36.29,36.29,0,0,0,25.56.11.24.24,0,0,0,25.33,0,58.67,58.67,0,0,0,10.88,4.49a.16.16,0,0,0-.1.08C1.58,18.32-.94,31.73.29,45a.3.3,0,0,0,.1.17,59,59,0,0,0,17.72,9,.23.23,0,0,0,.25-.08A42.1,42.1,0,0,0,22,48.13a.24.24,0,0,0-.12-.32,38,38,0,0,1-5.54-2.64.22.22,0,0,1,0-.37c.37-.28.74-.57,1.1-.87a.23.23,0,0,1,.23,0,42,42,0,0,0,35.68,0,.24.24,0,0,1,.23,0c.36.29.73.59,1.1.87a.22.22,0,0,1,0,.37,35.63,35.63,0,0,1-5.54,2.64.24.24,0,0,0-.12.32A47.72,47.72,0,0,0,52.6,54a.22.22,0,0,0,.25.09,58.75,58.75,0,0,0,17.75-9,.2.2,0,0,0,.09-.17A59.57,59.57,0,0,0,60.2,4.57.16.16,0,0,0,60.1,4.49ZM23.73,36.91c-3.5,0-6.38-3.21-6.38-7.15s2.82-7.16,6.38-7.16,6.43,3.24,6.38,7.16S27.28,36.91,23.73,36.91Zm23.59,0c-3.5,0-6.38-3.21-6.38-7.15s2.82-7.16,6.38-7.16,6.43,3.24,6.38,7.16S50.9,36.91,47.32,36.91Z"/></g></g></svg>