<svg xmlns="http://www.w3.org/2000/svg" viewBox="0 0 480 384.01"><defs><style>.cls-1{fill:#657be5;}</style></defs><g id="Layer_2" data-name="Layer 2"><g id="Layer_1-2" data-name="Layer 1"><path class="cls-1" d="M186.1,264.7c0,20.9-10.9,55.1-36.7,55.1s-36.7-34.2-36.7-55.1,10.9-55.1,36.7-55.1S186.1,243.8,186.1,264.7ZM480,214.2c0,31.9-3.2,65.7-17.5,95C424.6,385.8,320.4,384,245.8,384c-75.8,0-186.2,2.7-225.6-74.8C5.6,280.2,0,246.1,0,214.2c0-41.9,13.9-81.5,41.5-113.6a156.54,156.54,0,0,1-7.7-48.8c0-21.5,4.9-32.3,14.6-51.8,45.3,0,74.3,9,108.8,36a383,383,0,0,1,88.7-10,345,345,0,0,1,80.4,9.2C360.3,8.5,389.3,0,434.1,0c9.8,19.5,14.6,30.3,14.6,51.8A154.34,154.34,0,0,1,441,100c27.5,32.4,39,72.3,39,114.2Zm-64.3,50.5c0-43.9-26.7-82.6-73.5-82.6-18.9,0-37,3.4-56,6a293.82,293.82,0,0,1-45.1,3.2,295.62,295.62,0,0,1-45.1-3.2c-18.7-2.6-37-6-56-6-46.8,0-73.5,38.7-73.5,82.6,0,87.8,80.4,101.3,150.4,101.3h48.2C335.4,366,415.7,352.6,415.7,264.7Zm-82.6-55.1c-25.8,0-36.7,34.2-36.7,55.1s10.9,55.1,36.7,55.1,36.7-34.2,36.7-55.1S358.9,209.6,333.1,209.6Z"/></g></g></svg>