<svg xmlns="http://www.w3.org/2000/svg" viewBox="0 0 658 460.34"><defs><style>.cls-1{fill:#657be5;stroke:#657be5;stroke-miterlimit:10;stroke-width:18px;}</style></defs><g id="Layer_2" data-name="Layer 2"><g id="Layer_1-2" data-name="Layer 1"><path class="cls-1" d="M267,244.31,72.64,438.66a24,24,0,0,1-33.94,0L16,416a24,24,0,0,1,0-33.9L170,227.34,16,72.6a24,24,0,0,1,0-33.9L38.7,16a24,24,0,0,1,33.94,0L267,210.37A24,24,0,0,1,267,244.31Zm382,183v-32a24,24,0,0,0-24-24H321a24,24,0,0,0-24,24v32a24,24,0,0,0,24,24H625A24,24,0,0,0,649,427.34Z"/></g></g></svg>