<svg xmlns="http://www.w3.org/2000/svg" viewBox="0 0 660 462.34"><defs><style>.cls-1{fill:#657be5;stroke:#657be5;stroke-miterlimit:10;stroke-width:20px;}</style></defs><g id="Layer_2" data-name="Layer 2"><g id="Layer_1-2" data-name="Layer 1"><path class="cls-1" d="M268,245.31,73.64,439.66a24,24,0,0,1-33.94,0L17,417a24,24,0,0,1,0-33.9L171,228.34,17,73.6a24,24,0,0,1,0-33.9L39.7,17a24,24,0,0,1,33.94,0L268,211.37A24,24,0,0,1,268,245.31Zm382,183v-32a24,24,0,0,0-24-24H322a24,24,0,0,0-24,24v32a24,24,0,0,0,24,24H626A24,24,0,0,0,650,428.34Z"/></g></g></svg>