<svg xmlns="http://www.w3.org/2000/svg" viewBox="0 0 656 458.34"><defs><style>.cls-1{fill:#657be5;stroke:#657be5;stroke-miterlimit:10;stroke-width:16px;}</style></defs><g id="Layer_2" data-name="Layer 2"><g id="Layer_1-2" data-name="Layer 1"><path class="cls-1" d="M266,243.31,71.64,437.66a24,24,0,0,1-33.94,0L15,415a24,24,0,0,1,0-33.9L169,226.34,15,71.6a24,24,0,0,1,0-33.9L37.7,15a24,24,0,0,1,33.94,0L266,209.37A24,24,0,0,1,266,243.31Zm382,183v-32a24,24,0,0,0-24-24H320a24,24,0,0,0-24,24v32a24,24,0,0,0,24,24H624A24,24,0,0,0,648,426.34Z"/></g></g></svg>