<svg xmlns="http://www.w3.org/2000/svg" xmlns:xlink="http://www.w3.org/1999/xlink" viewBox="0 0 512 511.99"><defs><style>.cls-1{fill:url(#linear-gradient);}</style><linearGradient id="linear-gradient" x1="256" y1="511.99" x2="256" gradientUnits="userSpaceOnUse"><stop offset="0" stop-color="#637ac7"/><stop offset="1" stop-color="#ca80be"/></linearGradient></defs><g id="Layer_2" data-name="Layer 2"><g id="Layer_1-2" data-name="Layer 1"><path class="cls-1" d="M224,96l16-32,32-16L240,32,224,0,208,32,176,48l32,16ZM80,160l26.66-53.33L160,80,106.66,53.33,80,0,53.34,53.33,0,80l53.34,26.67ZM432,288l-26.66,53.33L352,368l53.34,26.67L432,448l26.66-53.33L512,368l-53.34-26.67ZM502.62,94.23,417.77,9.38a32,32,0,0,0-45.25,0L9.38,372.52a32,32,0,0,0,0,45.25l84.85,84.85a32,32,0,0,0,45.25,0L502.62,139.47A32,32,0,0,0,502.62,94.23ZM359.45,203.46l-50.91-50.91L395.14,66l50.91,50.91-86.6,86.6Z"/></g></g></svg>